<?xml version="1.0" standalone="no"?>
<!DOCTYPE svg PUBLIC "-//W3C//DTD SVG 20010904//EN"
 "http://www.w3.org/TR/2001/REC-SVG-20010904/DTD/svg10.dtd">
<svg version="1.0" xmlns="http://www.w3.org/2000/svg"
 width="4098.000000pt" height="5762.000000pt" viewBox="0 0 4098.000000 5762.000000"
 preserveAspectRatio="xMidYMid meet">

<g transform="translate(0.000000,5762.000000) scale(0.100000,-0.100000)"
fill="#000000" stroke="none">
<path d="M26780 56450 c0 -44 1 -45 45 -64 25 -10 62 -29 83 -43 l37 -24 -42
43 c-24 24 -61 63 -83 88 l-39 45 -1 -45z"/>
<path d="M25570 56229 c-1956 -1089 -3562 -2402 -4823 -3941 -1501 -1833
-2519 -4083 -2897 -6403 -87 -530 -133 -985 -161 -1560 -11 -240 -7 -772 7
-875 l6 -46 -128 13 c-488 48 -1197 30 -1811 -47 -258 -33 -275 -31 -375 27
-83 49 -319 244 -438 363 -330 330 -636 822 -851 1370 -29 74 -58 141 -65 149
-10 11 -21 12 -46 5 l-33 -10 2 -95 c4 -206 58 -620 119 -918 60 -294 161
-614 268 -844 l36 -77 -88 58 c-294 196 -564 320 -816 374 -74 15 -138 21
-241 22 -217 1 -217 9 -16 -191 195 -194 403 -452 544 -673 l16 -25 -82 7
c-389 32 -796 -34 -1091 -176 -138 -67 -241 -140 -347 -246 -86 -85 -169 -190
-169 -213 0 -15 78 -1 263 47 165 43 413 90 602 116 44 6 96 13 115 16 57 9
23 -11 -60 -36 -240 -70 -646 -233 -943 -377 -108 -53 -199 -94 -201 -92 -12
11 -26 1131 -26 2008 0 946 -8 1449 -30 1891 -98 1983 -406 3455 -1008 4820
-111 251 -342 717 -472 951 -781 1402 -1805 2594 -3097 3601 -471 368 -892
640 -1326 858 -180 91 -225 110 -262 110 -25 0 -45 -3 -45 -6 0 -4 20 -36 44
-73 123 -186 198 -421 255 -799 15 -101 16 -122 5 -118 -8 3 -138 78 -290 166
-239 139 -282 161 -313 158 -20 -2 -35 -7 -34 -13 0 -5 13 -62 27 -125 35
-159 60 -343 95 -700 86 -877 110 -1282 156 -2735 13 -423 27 -824 30 -890 20
-453 27 -587 41 -800 87 -1409 275 -2520 586 -3465 315 -960 768 -1769 1335
-2385 300 -326 678 -636 1478 -1210 681 -488 1337 -1012 2089 -1667 20 -17 27
-30 21 -35 -5 -5 -59 -47 -120 -93 -701 -533 -1292 -1249 -1647 -1998 -268
-565 -451 -1166 -637 -2099 -64 -318 -70 -341 -81 -323 -14 22 -369 99 -580
125 -596 74 -1163 -30 -1545 -283 -86 -58 -237 -207 -233 -230 3 -15 26 -18
183 -24 274 -10 493 -41 725 -104 153 -42 416 -152 365 -154 -48 -1 -238 -30
-325 -49 -236 -52 -527 -178 -710 -308 -191 -137 -369 -341 -469 -541 -48 -96
-108 -267 -117 -336 -6 -44 -5 -46 17 -46 34 0 72 23 194 116 305 233 713 385
1096 409 l94 5 -80 -31 c-133 -53 -318 -191 -477 -355 -401 -414 -666 -1061
-679 -1654 -3 -166 -4 -160 34 -160 41 0 51 8 127 100 123 149 338 377 480
508 341 316 641 527 985 693 220 106 219 106 145 17 -295 -350 -451 -931 -410
-1528 15 -224 18 -240 44 -240 46 0 66 14 102 68 113 172 287 335 485 456 42
25 79 46 82 46 3 0 -12 -35 -33 -78 -124 -252 -187 -561 -197 -959 -7 -268
-17 -247 102 -213 86 25 215 26 323 4 179 -37 512 -190 766 -352 l69 -43 -175
-78 c-142 -63 -498 -254 -498 -267 0 -4 127 54 228 105 46 23 177 78 292 122
l210 80 62 -42 c180 -121 490 -357 705 -535 l125 -104 -38 -16 c-237 -98 -695
-325 -936 -463 -146 -84 -398 -239 -398 -245 0 -2 150 72 333 164 349 175 568
275 908 413 l206 85 174 -156 c221 -196 539 -492 539 -501 0 -3 -80 -48 -178
-100 -467 -248 -910 -538 -1219 -798 -62 -52 -113 -97 -113 -99 0 -2 51 32
113 76 311 220 830 525 1318 775 l156 79 189 -180 c267 -256 379 -351 594
-505 l101 -72 -180 -78 c-1262 -546 -2472 -1483 -3382 -2619 -515 -643 -903
-1312 -1094 -1885 -102 -309 -160 -649 -153 -905 l3 -115 44 0 44 0 46 77 c89
150 208 283 348 391 57 44 188 127 199 127 4 0 -34 -42 -83 -93 -251 -263
-465 -637 -574 -1001 -34 -116 -35 -123 -10 -131 39 -12 71 7 123 74 117 150
293 310 455 415 39 25 74 46 77 46 3 0 -33 -57 -80 -127 -214 -321 -364 -734
-364 -1004 0 -278 130 -581 410 -954 283 -377 829 -929 1495 -1511 290 -253
681 -587 742 -634 l62 -47 -25 -24 c-14 -13 -95 -103 -178 -199 -734 -842
-1455 -1813 -2043 -2750 -58 -92 -60 -95 -94 -92 -66 6 -244 44 -423 92 -208
55 -213 56 -244 46 -34 -11 -178 -211 -452 -626 -137 -206 -259 -387 -273
-402 -14 -15 -49 -34 -83 -45 -54 -16 -97 -18 -494 -15 -239 2 -463 0 -498 -3
-79 -8 -115 -37 -166 -134 -50 -95 -45 -98 13 -8 70 107 81 112 216 110 60 0
225 -11 365 -23 297 -26 535 -24 609 4 24 9 46 15 47 13 2 -2 -23 -64 -55
-138 -32 -73 -82 -195 -111 -271 l-53 -136 -51 -26 c-70 -35 -195 -81 -434
-160 l-202 -68 0 -46 c0 -57 28 -363 33 -369 3 -2 10 70 16 159 7 90 13 172
14 182 2 16 24 25 132 53 271 69 497 156 551 211 29 29 85 195 168 492 l43
155 173 255 c187 276 462 665 507 717 l28 33 110 -30 c146 -40 425 -100 465
-100 40 0 43 8 -74 -189 -231 -387 -505 -889 -614 -1126 -86 -187 -179 -425
-241 -620 -51 -159 -143 -512 -156 -599 l-7 -45 -132 -79 c-72 -44 -212 -127
-311 -185 l-180 -106 -245 -10 c-264 -12 -499 -34 -595 -56 -135 -31 -171 -60
-340 -270 -143 -178 -321 -365 -398 -417 -127 -86 -386 -182 -872 -323 -126
-37 -250 -77 -275 -90 -87 -44 -169 -155 -215 -290 -26 -79 -61 -224 -105
-440 -59 -288 -99 -456 -112 -472 -36 -44 -179 -92 -568 -193 -283 -73 -477
-133 -541 -166 -84 -43 -131 -172 -143 -394 -4 -83 -4 -88 4 -35 24 153 32
194 52 254 30 93 71 134 166 165 97 32 259 72 530 131 382 83 544 141 577 206
16 31 42 134 121 494 68 306 96 407 136 493 54 114 130 177 241 197 l38 7 -6
-223 c-3 -123 -10 -290 -16 -371 -9 -126 -8 -156 6 -209 23 -93 96 -257 197
-447 196 -366 219 -412 220 -441 2 -73 -88 -173 -376 -416 -116 -98 -188 -166
-196 -186 -15 -35 -8 -158 12 -228 12 -40 13 -35 13 84 l0 127 31 26 c17 15
114 88 215 162 189 139 333 269 364 330 27 52 34 95 23 142 -5 24 -83 183
-173 353 -90 171 -183 355 -207 410 l-43 100 -2 150 c-3 184 -22 614 -29 636
-3 13 21 23 123 54 507 151 779 263 913 375 74 62 244 259 375 434 122 164
155 193 250 221 89 27 458 76 745 100 l65 5 -25 -19 c-14 -11 -72 -54 -130
-97 -159 -117 -249 -213 -298 -315 -86 -179 -91 -266 -67 -1055 10 -336 15
-731 13 -965 l-3 -395 -37 -75 c-27 -53 -66 -105 -139 -184 -205 -222 -539
-593 -539 -599 0 -29 277 46 683 183 470 160 656 260 789 426 166 205 248 546
248 1032 0 152 18 261 55 336 38 74 54 90 87 83 52 -10 75 7 89 68 10 46 18
59 48 79 46 31 102 59 106 55 2 -2 -3 -46 -11 -98 -51 -345 -32 -767 51 -1105
29 -119 73 -255 87 -272 12 -15 74 -17 83 -3 3 6 13 58 22 118 43 298 162 621
288 778 23 28 23 27 -6 -76 -61 -217 -73 -310 -72 -590 0 -140 4 -275 9 -300
l10 -45 44 0 45 0 7 60 c11 85 44 188 86 269 40 77 38 78 66 -39 21 -91 99
-247 178 -357 252 -348 636 -667 1173 -972 185 -106 757 -394 1200 -606 556
-265 996 -481 1335 -655 386 -197 910 -477 910 -485 0 -3 -53 -13 -117 -24
-303 -48 -822 -161 -1613 -350 -415 -99 -882 -203 -1097 -244 l-152 -29 -68
29 c-253 108 -587 127 -825 47 -414 -139 -681 -580 -730 -1206 -41 -525 129
-1012 471 -1353 163 -162 325 -265 531 -338 125 -44 249 -62 424 -62 180 0
294 13 438 49 l106 26 29 -23 c61 -50 207 -143 279 -178 164 -79 391 -142 606
-170 176 -22 550 -15 713 14 139 25 294 65 393 101 l77 28 100 -38 c195 -74
468 -126 785 -150 192 -14 613 -6 765 15 439 62 883 195 1230 369 199 99 283
162 418 312 233 259 330 486 447 1052 28 136 65 301 81 366 63 252 157 431
309 591 95 99 169 160 400 326 232 167 314 233 418 339 410 416 518 925 268
1275 -84 118 -194 201 -481 364 -431 244 -538 378 -795 997 -104 251 -220 492
-278 580 -107 160 -473 560 -539 587 l-30 13 256 266 c614 637 989 1055 1156
1287 30 42 42 52 59 48 12 -3 123 -14 248 -26 615 -57 1649 -5 2338 116 356
62 824 189 959 258 l31 17 223 -144 c579 -375 1055 -670 1767 -1097 1514 -907
2012 -1142 3520 -1660 476 -163 517 -178 608 -221 127 -61 138 -89 102 -260
-31 -146 -47 -406 -32 -536 19 -170 62 -231 145 -204 29 10 41 24 72 81 64
124 179 231 335 314 80 42 219 100 225 94 2 -2 -14 -39 -36 -83 -45 -91 -100
-257 -120 -360 -9 -46 -14 -136 -13 -260 1 -171 3 -200 27 -287 51 -192 135
-359 201 -399 40 -25 112 -25 124 -1 5 9 15 53 21 97 14 93 34 175 62 261 l20
62 87 -60 c241 -165 766 -447 1200 -644 662 -301 1571 -617 2155 -751 168 -38
168 -38 161 -63 -17 -67 -24 -198 -30 -575 -6 -384 -3 -483 22 -720 l6 -61
-79 -46 c-154 -89 -312 -231 -439 -393 -256 -329 -440 -820 -473 -1266 -43
-575 182 -978 647 -1160 293 -114 684 -172 1167 -172 634 -1 1048 94 1238 284
37 37 69 64 71 60 10 -15 218 -112 312 -144 418 -145 986 -148 1412 -8 198 65
328 140 436 249 l59 61 32 -24 c157 -120 509 -152 926 -85 367 60 617 168 795
346 76 75 99 105 134 177 154 319 81 742 -203 1172 -25 38 -58 114 -89 205
-200 585 -536 1155 -1013 1715 -151 177 -579 608 -785 790 -361 319 -671 539
-953 677 l-128 63 -168 240 c-864 1236 -1803 2706 -2438 3815 -314 549 -424
752 -829 1528 -598 1142 -752 1412 -916 1599 -161 184 -295 260 -507 286 l-96
12 62 28 c145 65 323 86 546 63 l87 -9 0 25 c0 42 -39 142 -79 203 l-38 58
101 34 c138 46 401 177 515 256 252 175 449 398 557 631 51 112 51 112 -53
121 -49 3 -119 13 -158 21 -79 15 -199 71 -232 106 l-23 24 223 11 c193 11
233 10 302 -4 120 -23 156 -26 167 -15 15 15 -44 146 -112 250 -128 195 -297
319 -504 372 -44 11 -96 20 -118 20 -21 0 -38 4 -38 9 0 12 153 70 255 96 102
26 242 45 330 45 52 0 183 -16 280 -35 54 -10 63 6 35 67 -199 427 -729 720
-1345 741 l-70 2 46 22 c87 42 173 57 329 56 164 0 307 -25 519 -87 135 -40
159 -43 168 -20 9 24 -34 168 -78 262 -124 268 -349 438 -669 508 -128 28
-427 26 -569 -5 -257 -55 -507 -163 -679 -292 -49 -37 -53 -39 -47 -18 76 244
268 524 478 694 47 39 85 77 84 85 -4 23 -405 21 -547 -3 -198 -34 -387 -111
-493 -199 -27 -22 -50 -38 -52 -36 -7 6 35 230 56 300 11 38 35 98 54 135 19
36 35 70 35 76 0 22 -125 0 -213 -38 -306 -131 -554 -379 -730 -730 -96 -192
-179 -423 -222 -620 -10 -44 -20 -86 -24 -92 -4 -9 -28 6 -71 44 -107 93 -206
164 -293 208 -124 64 -122 58 -92 250 48 309 52 679 9 962 -22 149 -78 362
-120 458 -51 116 -51 111 -10 119 106 20 586 171 832 262 334 123 511 197 713
299 628 314 1003 670 1226 1162 199 441 305 957 336 1633 l11 244 132 137
c391 404 624 794 752 1258 87 317 124 691 104 1051 -22 392 -80 729 -196 1133
l-45 159 63 57 c358 327 809 602 1264 770 l81 29 95 -96 c388 -395 669 -837
775 -1221 48 -175 32 -355 -50 -568 -48 -123 -122 -268 -289 -560 -78 -139
-210 -373 -293 -520 -82 -147 -207 -371 -278 -498 -242 -433 -447 -862 -493
-1035 -26 -99 -24 -239 6 -315 35 -90 223 -363 624 -908 329 -447 388 -548
371 -630 -19 -86 -113 -215 -261 -358 -167 -161 -387 -318 -568 -407 -61 -29
-122 -64 -134 -75 -75 -69 -68 -169 20 -286 54 -73 318 -336 433 -432 156
-131 569 -452 605 -472 58 -31 136 -20 207 29 59 40 97 86 276 329 142 193
275 350 470 552 179 186 250 283 296 403 43 112 55 185 48 308 -9 167 -44 257
-220 579 -63 114 -154 282 -202 373 -137 258 -210 383 -315 545 -144 222 -170
284 -170 404 1 154 87 301 358 611 41 47 125 153 187 235 386 514 476 791 462
1414 -7 292 -17 393 -103 991 -98 683 -166 1073 -265 1513 -22 99 -38 181 -35
184 7 8 151 -26 231 -54 322 -114 559 -335 750 -696 160 -303 393 -887 517
-1297 190 -627 186 -729 -45 -1195 -60 -121 -152 -312 -204 -425 -52 -113
-163 -342 -247 -510 -84 -168 -167 -344 -184 -392 -42 -118 -69 -254 -81 -423
-51 -667 -86 -1320 -76 -1404 14 -112 56 -185 128 -224 37 -19 57 -22 157 -22
114 0 116 1 280 59 538 189 586 201 786 191 157 -9 236 4 260 40 35 54 -10
152 -148 317 -82 99 -323 408 -449 574 -139 184 -183 286 -183 424 0 106 25
192 101 344 116 232 266 484 555 931 446 691 503 794 543 979 38 170 -5 446
-141 918 -210 725 -225 806 -244 1308 -16 444 -36 622 -85 785 -78 256 -272
415 -735 598 -434 172 -913 282 -1456 334 -101 9 -184 20 -183 23 0 3 53 48
117 101 241 198 464 401 776 709 177 174 351 337 387 363 79 56 192 110 274
132 93 25 251 30 395 12 69 -9 204 -23 300 -32 408 -36 600 -84 767 -191 130
-83 209 -177 655 -774 166 -222 290 -378 331 -416 87 -82 190 -134 264 -134
95 0 122 24 213 185 121 213 242 378 446 607 231 259 317 417 281 517 -17 47
-64 69 -189 87 -188 26 -366 83 -608 194 -69 32 -437 214 -819 405 -771 385
-926 458 -1116 521 -198 65 -276 79 -450 79 -143 -1 -154 -2 -245 -33 -154
-54 -214 -90 -755 -456 -88 -59 -248 -160 -355 -224 -107 -63 -314 -192 -460
-285 -380 -245 -452 -274 -634 -264 -100 6 -166 21 -401 90 -66 19 -181 47
-255 62 -74 15 -139 31 -143 35 -10 9 68 212 163 425 192 433 545 1092 670
1249 97 123 215 197 383 241 202 53 448 62 1081 40 530 -19 734 -14 969 26
217 37 320 79 593 240 76 45 279 158 449 251 374 206 339 185 560 328 370 241
471 269 914 256 628 -18 707 -19 744 -7 78 26 84 92 20 198 -158 258 -198 348
-314 704 -97 302 -135 402 -196 528 -81 165 -125 194 -258 171 -159 -29 -672
-326 -1065 -618 -280 -209 -417 -328 -660 -572 -135 -136 -266 -261 -292 -278
-106 -72 -236 -107 -449 -122 -231 -16 -816 -11 -1329 10 -776 32 -1000 26
-1185 -31 -74 -22 -192 -78 -265 -124 -144 -91 -459 -339 -709 -558 -85 -75
-158 -134 -162 -132 -12 8 -32 472 -26 631 6 185 25 275 87 400 74 151 167
232 750 650 189 136 790 562 894 634 28 20 155 108 281 196 251 175 568 388
710 477 145 91 195 148 195 221 0 56 -26 94 -107 159 -294 236 -647 357 -881
302 -117 -28 -165 -66 -287 -230 -123 -166 -250 -277 -705 -622 -583 -440
-1365 -957 -1905 -1258 -263 -146 -352 -201 -482 -297 -122 -89 -170 -140
-205 -215 -60 -127 -49 -213 73 -573 92 -272 126 -423 194 -866 25 -164 54
-351 65 -414 48 -294 32 -431 -72 -591 -54 -85 -201 -234 -318 -323 -91 -70
-461 -321 -507 -345 -13 -6 -78 -53 -146 -104 -68 -50 -157 -116 -198 -145
-175 -125 -587 -416 -621 -439 l-37 -25 -33 25 c-130 97 -481 281 -673 352
-341 127 -607 177 -940 178 -310 1 -564 -31 -900 -113 -784 -190 -1638 -567
-2727 -1202 l-193 -113 -200 5 -200 5 32 23 c82 59 178 90 356 117 51 8 47 26
-15 76 -154 123 -386 248 -605 328 -272 99 -656 185 -1013 227 -177 20 -698
30 -899 15 -85 -5 -157 -9 -158 -7 -2 2 49 41 114 86 913 643 2129 1626 3513
2840 401 352 561 482 721 589 212 143 369 217 566 268 146 37 350 39 488 5 86
-22 138 -22 151 -1 15 25 -210 302 -377 464 -189 183 -414 354 -639 486 l-75
44 40 3 c55 5 239 -15 365 -39 334 -65 736 -258 1005 -484 112 -94 117 -97
159 -89 21 3 36 12 36 20 0 26 -71 234 -116 342 -296 706 -902 1251 -1662
1496 -79 25 -152 46 -162 46 -11 0 -22 5 -25 10 -3 6 0 10 7 10 7 0 33 11 58
25 123 69 196 101 315 141 192 63 476 113 735 130 104 6 163 20 158 36 -9 25
-277 111 -458 148 -337 68 -740 77 -1135 24 -60 -8 -120 -17 -132 -19 -37 -8
-26 8 30 44 29 18 79 65 112 104 33 38 112 118 176 176 222 203 438 358 636
459 62 31 113 62 113 68 0 7 -29 17 -64 23 -722 126 -1427 54 -1948 -197 -129
-63 -295 -168 -388 -245 -30 -25 -56 -44 -58 -42 -2 2 -13 88 -23 192 -204
2019 -825 3598 -1840 4679 -221 236 -410 400 -616 537 -68 45 -123 87 -123 93
0 36 277 381 420 522 183 182 263 247 1222 1009 1054 837 1643 1398 2204 2099
606 757 1091 1610 1424 2504 527 1412 888 3473 1025 5850 17 293 35 725 35
838 l0 72 -33 0 c-43 0 -55 -10 -110 -100 -52 -87 -177 -238 -267 -325 l-62
-60 7 40 c12 74 122 388 185 530 83 187 80 175 34 175 -32 0 -86 -26 -274
-131z m-2177 -2583 c-911 -898 -1716 -1814 -2418 -2751 -1259 -1682 -1987
-3198 -2144 -4465 -11 -91 -22 -185 -24 -210 -2 -25 -4 7 -5 71 -5 293 74 919
173 1386 257 1201 710 2291 1363 3277 734 1108 1733 2054 2912 2758 174 104
479 277 489 278 2 0 -154 -155 -346 -344z m1232 -560 c-280 -1125 -679 -2272
-1150 -3306 -31 -69 -64 -141 -72 -160 -87 -194 -400 -809 -546 -1070 -44 -80
-91 -165 -105 -190 -32 -57 -180 -310 -220 -375 -17 -27 -44 -73 -61 -101 -43
-73 -324 -492 -401 -598 -289 -396 -603 -756 -914 -1048 -370 -349 -566 -502
-1121 -878 -463 -313 -615 -424 -885 -647 l-27 -22 3 22 c2 12 15 103 30 202
48 332 137 754 229 1080 158 566 468 1312 780 1881 285 518 605 982 1085 1574
613 755 988 1189 1944 2245 746 824 1135 1265 1390 1573 60 73 111 130 113
128 3 -2 -30 -142 -72 -310z m-16135 -73 c376 -339 782 -786 1088 -1198 978
-1317 1538 -2887 1663 -4665 24 -338 12 -1091 -20 -1248 -3 -19 -5 94 -3 250
5 314 -10 537 -54 833 -189 1277 -821 2850 -1852 4610 -264 451 -610 996 -873
1377 -77 110 -139 203 -139 206 0 6 1 5 190 -165z m-1116 -313 c905 -999 1635
-2134 2152 -3342 110 -257 293 -746 349 -934 15 -49 58 -190 95 -314 62 -204
185 -694 224 -895 35 -182 111 -647 200 -1230 123 -805 298 -1707 476 -2454
23 -95 39 -175 37 -178 -6 -5 -253 211 -497 433 -789 719 -1560 1554 -2002
2169 -181 253 -373 553 -478 750 -81 151 -137 261 -190 375 -79 172 -88 191
-105 240 -8 22 -21 55 -28 73 -33 76 -116 303 -121 328 -2 15 -32 117 -47 159
-12 38 -139 554 -154 631 -12 60 -15 76 -20 104 -3 17 -12 63 -21 104 -94 465
-187 1247 -224 1886 -32 556 -42 1438 -25 2165 l8 325 120 -125 c66 -69 179
-190 251 -270z m3904 -11468 c-322 -329 -769 -925 -1061 -1412 -592 -990 -894
-1933 -933 -2908 -4 -95 -8 -171 -10 -169 -8 8 -44 169 -58 262 -109 716 43
1533 429 2295 330 650 858 1299 1514 1859 69 58 139 118 155 133 60 52 39 16
-36 -60z m5884 -2193 c382 -106 657 -569 771 -1299 28 -184 30 -550 4 -720
-23 -147 -50 -259 -88 -375 -29 -86 -34 -95 -82 -131 -75 -56 -241 -219 -296
-288 -25 -33 -77 -107 -116 -165 -63 -95 -75 -107 -116 -123 -141 -52 -359
-63 -509 -28 -354 85 -589 375 -749 925 -53 182 -88 500 -77 704 30 580 239
1082 552 1331 126 100 263 164 406 189 72 13 214 4 300 -20z m-4117 -4 c197
-46 326 -129 442 -283 138 -183 231 -431 284 -760 30 -182 38 -597 15 -772
-80 -610 -337 -1075 -691 -1252 -193 -97 -433 -114 -655 -48 -63 18 -69 23
-128 98 -80 102 -258 274 -349 337 -61 42 -76 59 -98 108 -113 247 -174 651
-146 967 75 852 506 1504 1059 1604 104 19 187 19 267 1z m20575 -1829 c6 -8
18 -38 25 -67 55 -208 8 -377 -148 -531 -43 -43 -82 -78 -86 -78 -5 0 -25 -14
-46 -30 -34 -27 -181 -113 -355 -207 -50 -27 -254 -141 -340 -190 -322 -184
-615 -373 -873 -562 -128 -94 -180 -135 -305 -240 -85 -70 -245 -224 -352
-337 -62 -66 -200 -242 -229 -294 -49 -85 -102 -207 -122 -280 -35 -123 -33
-368 4 -640 58 -429 58 -588 -2 -765 -64 -188 -186 -332 -423 -499 l-68 -48 0
84 c0 96 -22 253 -79 563 -22 121 -56 319 -76 440 -41 255 -81 423 -137 585
-100 288 -101 291 -102 380 -1 72 3 92 24 133 59 117 254 259 695 507 148 84
364 211 480 283 537 334 1534 1034 1805 1266 125 106 258 241 323 326 111 144
152 180 237 206 45 13 137 10 150 -5z m-14435 -376 c-11 -5 -78 -27 -150 -50
-185 -60 -336 -121 -521 -210 -356 -171 -628 -357 -878 -600 -121 -117 -129
-123 -122 -91 3 19 28 81 55 138 223 467 704 756 1351 812 130 11 290 12 265
1z m-7954 -260 c307 -59 561 -191 769 -400 157 -156 268 -334 354 -562 36 -98
91 -296 84 -303 -2 -2 -30 32 -63 77 -124 171 -307 377 -489 547 -286 269
-638 499 -941 616 -55 21 -104 43 -110 48 -18 16 284 -1 396 -23z m26136 -879
c223 -112 386 -307 429 -512 45 -214 -73 -377 -297 -412 -55 -8 -118 -7 -297
8 -308 25 -522 23 -626 -4 -148 -39 -163 -52 -551 -451 -310 -320 -512 -463
-734 -522 -111 -29 -288 -26 -506 7 -443 68 -455 69 -835 69 -357 0 -577 -13
-865 -50 -646 -82 -899 -263 -1155 -823 -28 -63 -101 -238 -161 -390 -297
-750 -392 -935 -574 -1117 -93 -93 -171 -147 -269 -185 -189 -73 -388 -77
-851 -18 -97 13 -180 18 -210 14 -75 -9 -173 -63 -337 -184 -81 -60 -191 -131
-245 -159 -253 -129 -533 -176 -680 -112 -29 12 -57 28 -63 35 -9 10 45 53
242 195 139 99 294 213 343 251 126 98 226 155 325 185 514 155 795 261 1125
426 191 96 272 143 465 268 91 59 200 127 244 151 145 81 203 149 233 275 13
57 16 135 17 458 l1 388 36 32 c21 17 133 114 250 216 117 102 265 230 330
285 260 223 453 337 653 383 100 23 777 23 1181 0 713 -42 1222 -47 1385 -13
158 32 272 81 378 160 35 27 191 172 346 324 166 163 331 314 401 369 282 218
706 502 751 502 12 0 66 -22 121 -49z m-21432 -81 c835 -70 1738 -363 2668
-864 l147 -80 -68 -28 c-165 -70 -591 -275 -752 -362 -676 -368 -1330 -850
-1858 -1371 -112 -110 -209 -209 -214 -219 -6 -11 47 32 118 95 589 525 1287
1016 1984 1397 188 102 558 288 640 322 30 12 97 40 148 61 51 21 99 39 105
39 14 0 265 -157 397 -248 206 -142 454 -341 650 -520 l65 -60 -45 -6 c-25 -3
-108 -10 -184 -16 -348 -27 -1025 -158 -1445 -279 -763 -222 -1511 -533 -2116
-881 -89 -51 -138 -86 -80 -57 444 222 1243 542 1775 711 714 225 1288 352
1985 437 l170 20 63 -68 c121 -130 262 -364 281 -468 19 -103 -21 -229 -178
-555 -65 -135 -122 -255 -125 -268 -6 -19 -13 -22 -39 -17 -59 9 -341 44 -446
55 -372 37 -1274 54 -1706 31 -110 -6 -266 -13 -347 -17 l-148 -7 -1 134 c-2
107 -3 123 -9 79 -5 -30 -9 -86 -9 -125 -1 -38 -5 -76 -9 -83 -6 -8 -75 -19
-203 -32 -291 -30 -421 -47 -669 -86 -227 -36 -294 -52 -165 -40 155 14 739
56 879 62 l149 7 -7 -64 c-9 -90 -48 -275 -86 -404 -157 -543 -482 -916 -926
-1064 -161 -54 -272 -72 -475 -78 -280 -8 -436 23 -639 128 -139 72 -262 176
-333 279 -32 47 -75 103 -96 125 -22 22 -62 80 -89 128 -208 366 -330 872
-366 1520 l-5 87 29 0 c48 0 259 48 377 85 290 92 547 226 811 421 286 213
422 397 422 569 0 95 -22 146 -91 209 -101 94 -251 152 -507 198 -166 29 -519
31 -742 5 -688 -82 -1239 -227 -1608 -422 -146 -78 -216 -127 -303 -215 -91
-91 -129 -162 -136 -253 -7 -79 7 -126 58 -194 124 -166 564 -339 1029 -405
61 -8 195 -13 371 -13 l277 0 5 -285 c3 -184 11 -329 21 -410 54 -398 154
-730 297 -981 l49 -86 -21 -73 c-28 -103 -83 -231 -137 -324 -55 -93 -192
-242 -274 -297 -134 -91 -301 -153 -446 -165 -262 -22 -581 122 -866 390 -39
36 -72 64 -74 61 -13 -12 142 -197 233 -275 164 -144 323 -228 499 -265 96
-19 126 -43 314 -247 226 -247 378 -440 737 -938 372 -515 452 -617 577 -736
122 -116 231 -182 368 -226 63 -19 95 -23 205 -22 112 0 141 4 208 26 257 86
423 282 503 595 55 216 57 260 59 1038 1 661 7 862 31 1020 5 36 12 44 75 84
394 254 647 754 704 1397 l7 71 146 12 c348 29 1430 24 1892 -9 444 -32 576
-42 588 -46 17 -5 -164 -362 -336 -665 -462 -809 -906 -1399 -1342 -1783 -177
-155 -596 -475 -623 -476 -4 0 9 26 29 58 160 248 258 433 303 572 56 174 82
389 66 555 -9 97 -15 86 -45 -90 -48 -280 -118 -466 -309 -817 -66 -123 -132
-252 -146 -286 -15 -37 -39 -75 -59 -92 -22 -20 -35 -42 -40 -67 -3 -21 -27
-175 -52 -343 -66 -448 -116 -653 -200 -825 -106 -218 -243 -340 -532 -474
-156 -72 -273 -113 -443 -155 -280 -69 -497 -84 -659 -46 -118 28 -283 112
-415 211 -123 93 -636 597 -841 829 -201 226 -375 431 -433 510 -226 308 -453
534 -644 640 -32 18 -61 30 -64 27 -3 -4 33 -46 79 -94 101 -104 285 -314 348
-397 21 -27 -74 43 -270 199 -475 379 -986 872 -1413 1360 -53 61 -97 112 -97
115 0 13 555 249 1060 451 245 98 440 179 435 179 -17 0 -367 -107 -540 -164
-283 -95 -716 -255 -933 -346 l-93 -39 -126 159 c-169 213 -343 453 -335 461
11 11 209 66 406 115 422 104 958 201 1326 239 85 9 160 18 165 21 6 2 -84 2
-199 -1 -453 -11 -1124 -113 -1645 -250 l-123 -33 -93 142 c-106 162 -279 455
-273 462 3 2 103 12 224 22 261 20 969 22 1264 3 258 -16 590 -48 819 -77 107
-13 197 -22 199 -19 3 3 1 5 -4 5 -6 0 -75 13 -154 29 -595 121 -1241 179
-1845 167 -299 -7 -471 -14 -528 -22 l-37 -6 -34 74 c-159 343 -64 659 331
1100 213 238 622 627 908 864 930 771 2008 1244 3060 1344 61 5 126 12 145 13
85 9 576 6 685 -3z m-1130 -1287 c-681 -91 -1324 -262 -1764 -469 -63 -30
-116 -53 -118 -51 -2 2 23 24 54 49 255 200 633 350 1063 422 124 21 246 35
435 49 59 5 365 5 330 0z m12062 -3008 c552 -72 1079 -319 1600 -750 146 -120
444 -419 583 -585 481 -571 830 -1192 1066 -1895 40 -121 91 -291 114 -378 36
-140 40 -170 40 -275 0 -316 -69 -757 -171 -1092 -140 -464 -393 -958 -658
-1285 -80 -99 -253 -269 -366 -360 -53 -42 -97 -76 -99 -74 -1 2 -22 159 -46
349 -23 190 -56 408 -72 485 -16 77 -46 229 -68 338 -93 469 -279 1100 -461
1569 -350 901 -849 1713 -1386 2254 -99 100 -294 274 -307 274 -2 0 53 -58
123 -128 655 -663 1258 -1733 1675 -2972 185 -552 322 -1091 466 -1844 33
-176 63 -323 65 -327 3 -4 -41 -38 -98 -76 -590 -400 -1363 -647 -2278 -727
l-66 -6 -36 72 c-89 180 -286 334 -487 383 -160 38 -371 29 -577 -25 -454
-119 -700 -394 -720 -805 -6 -133 7 -222 52 -355 14 -40 24 -74 22 -75 -1 0
-27 -12 -57 -25 -81 -37 -186 -145 -232 -240 -54 -112 -69 -189 -67 -336 l2
-126 -56 -112 c-74 -145 -163 -263 -312 -411 -310 -310 -731 -587 -1410 -930
-713 -360 -1365 -631 -3195 -1330 -393 -150 -723 -276 -732 -280 -12 -5 -20
-1 -24 11 -32 92 -173 443 -214 533 -200 441 -482 916 -749 1261 -196 253
-422 494 -611 652 -146 122 -147 113 -5 -33 142 -146 300 -331 430 -504 191
-255 450 -659 571 -891 37 -71 70 -133 75 -139 22 -29 236 -471 330 -680 84
-191 104 -242 93 -248 -62 -36 -632 -232 -904 -312 -1054 -308 -1937 -359
-2522 -145 -48 17 -91 37 -97 44 -16 20 -187 426 -211 502 -30 95 -32 204 -4
241 43 60 153 93 374 113 297 27 543 101 717 216 93 62 147 118 190 201 40 75
57 153 51 236 -3 55 -9 73 -34 104 -35 45 -118 89 -193 103 -86 16 -314 12
-487 -10 -329 -40 -802 -64 -1559 -79 -482 -10 -462 -12 -516 62 -91 125 -277
491 -429 844 l-83 193 411 417 c826 841 1646 1648 2242 2208 1879 1762 3752
3327 5540 4627 1344 977 2419 1616 3485 2073 672 288 1211 448 1678 499 172
19 460 19 604 1z m-12004 -352 c220 -226 490 -351 818 -380 l55 -5 18 -202
c10 -110 20 -290 23 -398 5 -172 4 -203 -11 -243 -33 -85 -98 -115 -266 -122
-98 -5 -124 -2 -175 15 -33 11 -60 20 -60 19 0 -1 -11 -24 -24 -50 -65 -129
-283 -242 -419 -217 -92 16 -157 89 -256 288 -31 62 -114 220 -185 350 -71
130 -138 256 -149 278 l-21 42 42 27 c233 153 402 435 442 738 l6 48 36 -48
c20 -26 77 -89 126 -140z m17022 -476 c131 -36 181 -74 389 -300 54 -59 112
-115 130 -124 41 -21 256 -225 374 -356 109 -120 201 -252 232 -334 30 -79 55
-184 166 -708 201 -948 304 -1649 344 -2350 23 -406 2 -623 -87 -879 -87 -251
-206 -440 -563 -891 -250 -316 -319 -427 -342 -550 -21 -119 27 -241 210 -522
128 -197 189 -306 421 -740 239 -449 275 -544 275 -738 1 -128 -12 -190 -64
-300 -55 -118 -134 -216 -372 -455 -156 -157 -237 -248 -303 -339 -245 -338
-293 -397 -330 -411 -23 -9 -42 14 -109 130 -60 104 -112 240 -144 373 -25
104 -27 128 -26 337 0 207 2 235 27 353 55 259 151 485 307 727 104 161 153
261 158 325 l4 51 -105 123 c-238 277 -401 555 -500 852 -55 164 -79 300 -84
489 -6 191 10 311 78 578 92 363 214 669 453 1142 324 640 351 696 390 800 80
218 112 398 103 575 -7 129 -24 216 -67 340 -50 142 -111 250 -306 540 -276
413 -343 530 -444 785 -127 318 -206 445 -314 503 -38 21 -54 22 -231 22 -272
-1 -291 -5 -1060 -273 -219 -77 -221 -77 -320 -76 -111 0 -162 16 -258 78
-205 130 -325 385 -266 561 13 38 21 43 164 117 294 151 623 268 1110 395 160
42 355 93 435 114 80 21 179 42 220 48 91 12 237 6 305 -12z m1424 -478 c578
-67 1083 -194 1520 -380 243 -104 354 -189 449 -345 90 -145 129 -334 147
-714 16 -335 61 -696 125 -1021 50 -253 84 -388 176 -696 41 -138 84 -297 94
-353 25 -125 26 -297 4 -389 -22 -91 -96 -240 -204 -411 -51 -80 -198 -318
-328 -530 -129 -212 -298 -481 -374 -597 -77 -117 -161 -254 -188 -305 -103
-195 -140 -375 -106 -507 43 -168 101 -249 536 -751 60 -69 124 -146 144 -171
56 -73 106 -173 109 -214 2 -35 -1 -39 -28 -47 -16 -4 -102 -13 -190 -19
l-160 -12 -75 38 c-105 53 -181 106 -267 188 -183 174 -290 385 -329 649 -40
269 19 611 170 985 92 229 289 625 472 950 112 200 241 473 277 588 52 161 61
225 54 394 -10 264 -69 448 -285 891 -339 699 -395 840 -477 1220 -32 147 -61
230 -86 248 -10 7 -25 19 -33 27 -28 29 -384 255 -400 255 -3 0 -268 144 -365
199 -171 95 -363 240 -446 335 -51 59 -109 154 -137 225 -36 93 -27 291 15
291 5 0 89 -9 186 -21z m-21789 -1121 c-538 -334 -1073 -740 -1610 -1221 -191
-172 -712 -694 -875 -877 -465 -525 -850 -1043 -1161 -1564 -54 -91 -100 -161
-102 -156 -11 31 138 408 253 645 594 1216 1650 2256 2985 2944 203 104 516
251 535 251 6 0 -6 -10 -25 -22z m14275 -4813 c185 -49 332 -205 410 -438 14
-43 24 -84 23 -89 -2 -6 -21 13 -43 43 -145 202 -353 329 -540 329 -106 0
-226 -43 -329 -118 -111 -81 -223 -261 -286 -457 -17 -55 -34 -102 -37 -105
-3 -3 -3 47 0 110 20 386 202 648 500 721 90 22 225 24 302 4z m-14311 -877
c544 -734 953 -1622 1065 -2316 62 -382 51 -748 -34 -1061 -14 -51 -29 -100
-34 -108 -5 -9 -11 37 -15 118 -42 804 -271 1724 -647 2609 -79 185 -301 641
-388 798 -22 39 -38 72 -36 72 3 0 43 -51 89 -112z m15496 56 c171 -51 376
-199 497 -358 45 -60 133 -227 133 -253 0 -20 9 -16 61 31 117 105 234 122
347 49 44 -29 56 -49 23 -38 -30 9 -137 -12 -196 -39 -67 -30 -137 -94 -185
-167 l-36 -56 -39 71 c-111 205 -301 430 -443 525 -153 103 -283 145 -442 144
-122 -1 -219 -23 -336 -78 -42 -19 -79 -34 -81 -32 -6 7 123 97 189 132 172
91 352 116 508 69z m1026 -3326 c-29 -65 -51 -153 -70 -278 -21 -137 -39 -319
-32 -336 3 -9 20 -14 49 -14 l44 0 36 73 c110 220 369 346 797 386 58 6 120
13 139 17 31 6 22 -4 -93 -117 -243 -235 -369 -439 -442 -713 -14 -53 -22
-101 -19 -106 3 -6 25 -10 48 -10 37 0 50 7 115 65 40 36 97 83 125 104 322
243 816 364 1141 281 259 -66 503 -292 605 -560 50 -131 60 -121 -87 -84 -204
51 -347 67 -530 61 -179 -6 -261 -24 -375 -84 -119 -63 -104 -83 61 -83 577
-1 1079 -252 1301 -651 l31 -56 -68 10 c-37 5 -137 7 -222 4 -165 -6 -280 -26
-423 -72 -112 -37 -277 -115 -277 -131 0 -18 25 -22 165 -27 141 -5 212 -25
321 -93 129 -79 273 -248 338 -395 l24 -55 -86 14 c-128 20 -411 11 -516 -17
-44 -12 -82 -24 -85 -27 -13 -13 29 -61 86 -99 76 -51 165 -81 297 -101 56 -8
104 -16 109 -17 12 -3 -57 -140 -117 -229 -199 -298 -544 -553 -930 -687 l-88
-31 -74 70 c-286 271 -746 465 -1356 570 -94 16 -173 32 -176 34 -12 12 83
149 142 204 116 108 278 180 514 228 70 14 132 30 137 35 15 15 -24 41 -150
103 -129 64 -263 108 -394 130 -115 20 -346 21 -451 2 -41 -8 -76 -13 -77 -12
-1 1 3 35 9 76 21 149 -5 386 -62 559 -46 142 -81 208 -183 346 -96 128 -158
234 -171 287 -12 53 68 362 144 557 141 361 346 637 603 810 61 41 183 111
193 111 2 0 -7 -24 -20 -52z m-17095 -993 c315 -223 443 -324 465 -367 24 -47
12 -96 -67 -253 -104 -210 -135 -361 -126 -615 6 -166 30 -303 83 -471 41
-130 130 -335 198 -458 41 -74 47 -95 57 -180 14 -123 5 -254 -26 -378 -49
-195 -292 -643 -844 -1551 -94 -156 -199 -336 -233 -400 -94 -178 -197 -270
-441 -397 -99 -51 -352 -157 -411 -171 -27 -7 -37 1 -139 107 -122 127 -358
385 -426 467 -24 28 -48 52 -52 52 -13 0 27 -96 78 -187 90 -162 273 -378 406
-480 65 -50 69 -65 35 -133 -37 -73 -86 -94 -229 -98 l-117 -4 -72 73 c-157
160 -294 336 -417 535 l-76 122 -33 -16 c-19 -8 -34 -23 -34 -32 0 -26 85
-186 154 -290 77 -115 182 -237 299 -346 48 -45 87 -86 87 -91 0 -17 -76 -81
-129 -107 -96 -49 -254 -107 -523 -192 -816 -256 -1151 -380 -1546 -570 -319
-153 -433 -233 -522 -364 -131 -193 -181 -387 -225 -880 -21 -232 -41 -365
-71 -480 -69 -263 -211 -417 -529 -575 -135 -67 -386 -160 -485 -180 l-35 -7
51 53 c302 320 380 411 430 509 35 66 34 -11 16 1275 -12 910 -10 984 29 1110
53 172 196 320 458 478 75 46 103 57 140 58 45 2 45 2 11 8 l-35 7 35 18 c99
53 1646 1028 1830 1153 144 99 294 217 339 268 62 71 115 201 191 470 17 61
104 318 193 572 l162 462 45 -26 c25 -14 65 -37 90 -50 57 -32 178 -102 208
-121 12 -8 22 -12 22 -9 0 5 -112 86 -268 194 -26 18 -54 38 -63 45 -15 12 -5
45 110 363 70 193 147 395 170 450 133 313 297 528 910 1194 431 469 586 631
597 627 7 -3 130 -89 275 -191z m11184 -1997 c-340 -553 -930 -1152 -1534
-1557 -567 -380 -1199 -663 -1863 -835 -151 -39 -452 -106 -478 -106 -5 0 -12
21 -15 48 -21 152 -61 270 -107 319 l-20 22 43 11 c1469 381 2818 1104 3914
2098 61 54 112 98 114 96 2 -2 -22 -45 -54 -96z m1585 -1783 c397 -912 1169
-1772 2207 -2458 844 -557 1874 -1024 2898 -1312 l190 -54 -85 0 c-115 -1
-362 15 -605 39 -1591 159 -2827 723 -3658 1670 -437 498 -759 1105 -920 1735
-52 200 -109 532 -88 510 4 -6 32 -64 61 -130z m-5670 -388 c48 -28 60 -42 92
-107 34 -67 92 -220 85 -226 -6 -6 -283 -45 -442 -63 -345 -38 -778 -58 -1028
-46 l-155 7 -42 110 c-22 61 -39 112 -38 113 2 1 95 12 208 24 437 48 809 113
1260 220 3 0 30 -14 60 -32z m-2930 -227 c289 -26 922 -22 1264 6 l71 6 49
-106 c27 -59 47 -108 44 -111 -14 -14 -600 41 -909 85 -298 43 -714 121 -729
137 -3 3 18 2 45 -1 28 -3 102 -11 165 -16z m-2011 -1599 c223 -487 304 -991
226 -1409 -51 -269 -225 -581 -533 -951 -132 -159 -543 -568 -737 -734 -88
-75 -161 -134 -164 -132 -2 3 23 33 55 67 155 166 365 437 507 653 356 545
560 1087 628 1675 6 58 12 197 12 310 0 261 -20 416 -88 690 -9 34 47 -65 94
-169z m-4083 -5856 c177 -45 319 -126 472 -270 110 -104 174 -198 180 -267 l4
-53 -66 -75 c-284 -321 -451 -831 -407 -1245 34 -321 152 -595 357 -830 l65
-75 -28 -11 c-62 -24 -245 -59 -366 -71 -374 -35 -706 94 -979 381 -212 223
-376 553 -430 865 -29 171 -22 454 16 633 100 473 335 829 642 974 76 36 162
62 244 72 65 9 202 -4 296 -28z m2009 -240 c155 -27 275 -65 413 -130 144 -69
290 -151 335 -187 l28 -23 -68 -45 c-107 -70 -297 -266 -381 -393 -127 -194
-220 -418 -259 -627 -25 -132 -25 -439 0 -564 66 -327 241 -624 462 -782 34
-23 69 -52 79 -63 17 -19 17 -20 -9 -37 -41 -27 -334 -102 -463 -119 -344 -46
-765 23 -1077 176 -275 133 -502 345 -625 580 -46 89 -101 248 -127 369 -28
132 -25 458 5 600 137 634 562 1117 1082 1231 189 41 417 46 605 14z m2307
-90 c583 -77 1079 -403 1439 -945 223 -335 354 -775 305 -1023 -48 -242 -217
-413 -596 -603 -588 -295 -1319 -410 -2028 -319 -506 65 -772 179 -984 421
-319 364 -379 939 -154 1467 150 349 418 643 721 787 216 104 545 192 825 223
94 10 369 6 472 -8z m18363 -1181 c107 -18 254 -64 350 -108 130 -61 287 -196
408 -353 253 -329 457 -895 499 -1380 32 -385 -72 -834 -230 -992 -259 -259
-1110 -347 -1887 -195 -555 109 -869 396 -956 874 -20 106 -17 397 5 525 72
427 269 859 523 1149 214 243 529 426 829 480 109 20 347 20 459 0z m2420
-274 c280 -71 516 -276 726 -628 65 -110 159 -309 159 -338 0 -9 22 -85 49
-168 155 -479 160 -899 15 -1161 -38 -68 -165 -192 -244 -238 -128 -74 -306
-129 -530 -164 -159 -25 -532 -25 -675 0 -217 38 -399 97 -575 187 -138 71
-141 81 -65 245 56 122 75 228 82 455 9 299 -18 510 -99 783 -60 204 -50 257
93 493 142 236 293 381 492 474 186 87 385 108 572 60z m1780 -71 c191 -59
382 -203 608 -459 234 -266 367 -510 444 -818 23 -91 27 -128 27 -252 1 -132
-2 -152 -26 -218 -56 -154 -157 -277 -313 -378 -242 -157 -625 -258 -975 -257
-186 0 -310 30 -437 103 l-52 30 34 67 c42 85 63 165 75 293 17 175 -21 492
-77 645 -75 206 -103 293 -103 319 0 51 50 275 86 388 97 301 249 488 449 555
54 18 171 10 260 -18z"/>
<path d="M16850 37645 c-193 -44 -348 -181 -450 -398 -100 -214 -118 -504 -44
-741 46 -146 108 -250 209 -351 140 -141 264 -192 441 -183 109 6 185 32 275
93 120 82 220 211 280 362 160 398 32 915 -279 1127 -129 88 -292 123 -432 91z
m505 -704 c172 -80 188 -374 27 -484 -188 -129 -385 138 -275 371 9 20 35 53
56 74 60 58 123 71 192 39z m-42 -605 c37 -34 53 -96 38 -145 -13 -45 -62 -91
-96 -91 -34 0 -83 46 -96 91 -16 52 1 109 42 143 38 32 78 33 112 2z"/>
<path d="M12694 37640 c-303 -46 -549 -338 -604 -719 -17 -113 -8 -314 19
-413 73 -278 248 -475 471 -533 85 -22 220 -16 309 15 196 69 375 268 458 509
40 119 48 180 47 366 -1 215 -49 377 -158 530 -129 180 -341 276 -542 245z
m459 -766 c54 -38 88 -105 94 -187 20 -240 -215 -403 -353 -245 -50 57 -67
115 -62 205 12 205 181 325 321 227z m-133 -582 c61 -61 43 -176 -33 -217
l-37 -20 -37 20 c-74 39 -83 147 -18 212 43 43 85 45 125 5z"/>
<path d="M16208 32223 c7 -3 16 -2 19 1 4 3 -2 6 -13 5 -11 0 -14 -3 -6 -6z"/>
<path d="M13428 32033 c7 -3 16 -2 19 1 4 3 -2 6 -13 5 -11 0 -14 -3 -6 -6z"/>
<path d="M13283 31803 c9 -2 23 -2 30 0 6 3 -1 5 -18 5 -16 0 -22 -2 -12 -5z"/>
<path d="M23913 28892 c-8 -5 17 -53 83 -157 332 -520 680 -1168 971 -1810
169 -373 174 -384 334 -788 67 -169 123 -306 125 -304 5 4 -86 312 -168 572
-27 88 -106 300 -175 470 -223 555 -529 1137 -840 1600 -138 204 -300 425
-312 425 -3 0 -11 -4 -18 -8z"/>
<path d="M20155 27643 c43 -39 107 -84 117 -81 7 3 -8 18 -33 35 -47 32 -101
62 -84 46z"/>
<path d="M20798 27096 c-10 -7 -18 -17 -18 -21 0 -4 34 -44 76 -88 99 -106
347 -411 455 -557 198 -268 429 -628 597 -927 209 -372 477 -935 652 -1371 40
-100 75 -181 77 -178 3 3 -77 265 -132 431 -13 39 -66 179 -119 312 -302 764
-707 1452 -1195 2032 -115 138 -349 381 -365 381 -6 0 -19 -7 -28 -14z"/>
<path d="M25633 27080 c3 -8 50 -109 105 -225 89 -188 148 -323 312 -715 27
-63 69 -162 93 -220 56 -133 86 -191 87 -167 1 46 -67 318 -116 467 -110 331
-282 649 -449 835 -20 22 -34 33 -32 25z"/>
<path d="M17120 25445 c0 -2 17 -13 38 -24 32 -16 195 -130 273 -190 26 -20
27 -20 43 -2 16 18 12 21 -94 85 -92 56 -244 136 -257 136 -1 0 -3 -2 -3 -5z"/>
<path d="M17824 24945 l-29 -23 90 -94 c258 -267 353 -374 533 -597 299 -373
575 -782 883 -1308 67 -114 126 -212 131 -218 12 -13 -66 163 -148 334 -238
498 -569 1008 -907 1401 -100 116 -356 379 -458 470 l-65 59 -30 -24z"/>
<path d="M21890 23804 c188 -194 340 -403 492 -674 93 -166 246 -496 288 -622
48 -146 125 -333 128 -315 2 9 -6 65 -18 124 -136 689 -516 1318 -950 1570
-40 23 -33 14 60 -83z"/>
<path d="M18211 22883 c131 -141 335 -414 629 -843 147 -215 277 -400 292
-415 26 -28 -113 282 -180 400 -170 300 -388 590 -556 738 -76 68 -207 167
-220 167 -5 0 11 -21 35 -47z"/>
<path d="M14741 22674 c410 -419 827 -945 1129 -1424 129 -205 192 -300 201
-300 11 0 -7 42 -125 277 -199 398 -425 730 -716 1050 -71 78 -181 189 -244
246 -112 102 -315 261 -366 287 -14 7 41 -55 121 -136z"/>
<path d="M9390 17626 c0 -3 19 -41 41 -87 l42 -82 18 24 c10 13 18 27 16 31
-3 9 -107 118 -113 118 -2 0 -4 -2 -4 -4z"/>
<path d="M9740 17196 c-11 -26 -20 -51 -20 -55 0 -12 115 -119 195 -182 76
-61 224 -153 232 -145 3 2 -15 26 -39 53 -46 52 -286 312 -324 352 l-23 25
-21 -48z"/>
<path d="M9190 17029 c0 -3 7 -30 16 -59 12 -42 18 -50 25 -38 6 11 1 29 -16
60 -14 23 -25 40 -25 37z"/>
<path d="M9475 16509 c-2 -8 -11 -33 -19 -56 l-15 -41 51 -89 c154 -269 377
-532 580 -683 75 -56 301 -190 321 -190 20 0 0 20 -57 58 -228 149 -526 491
-778 891 -44 70 -80 117 -83 110z"/>
<path d="M6280 13323 c-19 -8 -36 -16 -38 -18 -2 -2 61 -83 140 -181 79 -99
151 -190 160 -203 10 -14 20 -22 24 -19 11 11 -36 161 -72 228 -31 60 -156
211 -172 209 -4 0 -23 -7 -42 -16z"/>
<path d="M5840 13141 c0 -4 54 -73 121 -152 133 -159 324 -393 409 -502 72
-92 84 -95 60 -15 -28 93 -92 216 -159 305 -124 166 -431 426 -431 364z"/>
<path d="M26992 56061 c-19 -1172 -149 -2571 -353 -3781 -281 -1673 -610
-2812 -1084 -3761 -547 -1093 -1382 -2171 -2348 -3031 -325 -290 -541 -466
-1542 -1263 -557 -443 -672 -547 -863 -782 l-82 -102 105 -78 c59 -43 110 -79
114 -81 5 -2 47 43 93 100 175 212 267 292 1093 948 547 435 821 658 1045 849
821 701 1499 1471 2066 2346 766 1181 1175 2337 1539 4351 229 1272 368 2639
401 3969 8 300 6 311 -57 357 -17 13 -40 39 -51 60 -11 20 -32 45 -47 56 l-26
19 -3 -176z"/>
<path d="M10090 53466 c0 -2 8 -10 18 -17 15 -13 16 -12 3 4 -13 16 -21 21
-21 13z"/>
<path d="M10145 53400 c10 -11 20 -20 23 -20 3 0 -3 9 -13 20 -10 11 -20 20
-23 20 -3 0 3 -9 13 -20z"/>
<path d="M10185 53350 c10 -11 20 -20 23 -20 3 0 -3 9 -13 20 -10 11 -20 20
-23 20 -3 0 3 -9 13 -20z"/>
<path d="M10287 53220 c457 -606 827 -1204 1138 -1835 658 -1339 1054 -2752
1209 -4315 67 -672 94 -1272 103 -2275 l6 -690 95 20 95 20 -7 465 c-14 935
-41 1553 -97 2150 -147 1585 -554 3055 -1220 4405 -331 672 -737 1318 -1212
1929 -69 88 -140 177 -157 196 -17 19 4 -12 47 -70z"/>
<path d="M14963 45360 c93 -254 247 -578 375 -787 81 -133 219 -325 286 -398
44 -48 38 -34 -30 65 -131 193 -294 512 -409 805 -72 182 -91 214 -185 315
l-60 65 23 -65z"/>
<path d="M6877 43985 c84 -94 292 -299 413 -406 225 -200 483 -397 1045 -799
640 -457 1012 -746 1580 -1225 98 -82 183 -150 189 -150 30 0 -3 36 -152 165
-645 556 -1114 923 -1837 1440 -651 465 -907 667 -1175 925 -112 108 -123 116
-63 50z"/>
<path d="M21821 42248 c543 -732 974 -1775 1224 -2963 46 -219 125 -664 125
-707 0 -45 11 -50 87 -37 56 9 70 15 67 28 -2 9 -17 95 -34 191 -17 96 -51
267 -76 380 -275 1261 -726 2289 -1347 3068 -53 67 -99 122 -102 122 -3 0 23
-37 56 -82z"/>
<path d="M25723 38263 c-2 -124 -96 -212 -461 -428 -185 -110 -199 -124 -122
-125 19 0 111 -11 204 -25 l170 -24 75 45 c164 100 277 199 307 269 31 75 13
139 -57 210 -22 22 -57 60 -78 84 l-37 43 -1 -49z"/>
<path d="M26370 37270 c0 -203 -225 -374 -587 -446 l-83 -17 85 -53 c46 -29
111 -71 144 -93 33 -23 66 -41 74 -41 37 0 201 55 282 95 113 55 194 125 233
205 58 115 51 195 -22 265 -23 22 -51 56 -63 75 -12 19 -31 41 -42 48 -20 12
-21 10 -21 -38z"/>
<path d="M35296 36990 c9 -19 19 -65 22 -101 4 -57 1 -75 -21 -123 -57 -123
-115 -168 -1132 -859 -275 -187 -603 -413 -730 -502 -126 -89 -316 -215 -420
-281 -105 -66 -225 -145 -265 -176 -84 -63 -203 -168 -197 -174 2 -2 46 4 98
15 115 24 324 51 388 51 42 0 63 10 197 94 83 51 256 167 385 258 128 90 461
319 739 508 670 455 950 653 1026 723 82 76 118 146 118 231 -1 97 -43 175
-174 316 -46 50 -49 52 -34 20z"/>
<path d="M5521 36263 c16 -22 71 -81 133 -145 67 -70 75 -70 188 6 104 69 105
76 10 76 -60 0 -238 37 -291 61 -53 23 -57 24 -40 2z"/>
<path d="M38784 36000 c38 -69 79 -180 181 -480 108 -320 170 -470 251 -611
81 -143 106 -216 107 -315 1 -73 -3 -89 -31 -147 -59 -119 -189 -210 -403
-281 -281 -94 -759 -146 -1209 -132 l-205 7 -55 -34 c-30 -18 -93 -58 -140
-87 -47 -29 -186 -110 -310 -180 -124 -70 -317 -182 -430 -249 -382 -228 -627
-334 -959 -415 -406 -100 -722 -126 -1535 -126 l-546 0 -27 -42 c-127 -200
-415 -759 -544 -1057 l-19 -44 22 15 c13 8 104 65 204 127 l181 113 47 97 c49
98 241 449 293 534 l28 46 480 1 c471 0 482 1 596 25 216 46 339 58 614 61
254 2 263 3 385 34 352 88 587 192 1052 467 147 87 336 196 420 243 84 47 212
123 286 169 l133 84 372 2 c274 2 408 6 507 19 471 57 733 145 881 297 131
132 133 297 8 514 -86 147 -152 304 -249 590 -168 496 -210 584 -350 735 l-60
65 24 -45z"/>
<path d="M26590 36026 c0 -2 8 -10 18 -17 15 -13 16 -12 3 4 -13 16 -21 21
-21 13z"/>
<path d="M26685 35896 c144 -220 260 -458 349 -715 45 -128 46 -137 36 -187
-21 -101 -84 -158 -295 -265 -60 -30 -133 -65 -162 -76 -46 -19 -53 -26 -63
-61 -15 -58 -91 -153 -168 -212 -214 -163 -539 -245 -1005 -255 l-188 -3 -72
-55 c-176 -133 -406 -327 -882 -747 -820 -724 -1806 -1534 -2527 -2077 l-186
-140 151 -18 c84 -9 174 -21 201 -26 l48 -9 217 167 c729 562 1580 1268 2371
1968 342 302 631 546 774 654 l91 69 210 6 c396 11 676 71 889 190 126 70 266
225 266 292 0 15 14 26 58 44 183 75 381 192 420 250 59 88 55 136 -33 366
-128 333 -334 685 -523 894 -36 39 -33 33 23 -54z m-1182 -1947 c-12 -12 -85
-31 -92 -24 -6 7 61 34 84 35 13 0 16 -3 8 -11z"/>
<path d="M5150 34758 c0 -6 21 -32 48 -59 26 -26 60 -65 77 -85 28 -35 132
-94 165 -94 9 0 29 28 49 67 34 69 32 82 -14 83 -31 0 -201 48 -266 74 -33 13
-59 19 -59 14z"/>
<path d="M25275 34165 c-25 -12 -26 -14 -5 -9 28 7 60 23 45 23 -5 0 -23 -6
-40 -14z"/>
<path d="M5300 33090 c0 -5 24 -34 53 -64 28 -30 63 -68 75 -85 28 -37 153
-99 262 -129 187 -53 411 -72 602 -53 105 11 262 41 273 53 7 7 -7 235 -15
248 -5 8 -35 3 -106 -19 -263 -80 -509 -98 -774 -54 -112 18 -244 55 -317 88
-29 13 -53 20 -53 15z"/>
<path d="M6690 32640 c0 -5 27 -37 60 -70 33 -33 60 -65 60 -71 0 -24 210
-134 224 -118 2 2 6 41 10 85 l6 81 -49 7 c-72 10 -194 43 -256 71 -30 13 -55
20 -55 15z"/>
<path d="M7160 31929 c5 -9 24 -29 42 -46 18 -16 45 -46 59 -66 14 -21 41 -49
60 -63 46 -33 198 -80 341 -105 l117 -20 88 49 c48 28 111 61 138 75 l50 25
-65 30 c-64 29 -70 30 -270 35 -220 6 -317 21 -483 75 -70 23 -84 25 -77 11z"/>
<path d="M39185 31285 c53 -153 -51 -369 -321 -669 -136 -151 -193 -224 -264
-341 -194 -318 -271 -417 -402 -514 -402 -300 -1086 -399 -1583 -229 -78 27
-208 92 -265 132 -77 55 -77 52 0 -34 103 -114 187 -182 300 -240 173 -89 350
-135 568 -149 487 -31 990 124 1260 387 82 81 129 143 223 299 117 194 193
303 280 398 188 207 281 330 345 457 88 174 78 280 -35 404 -25 27 -63 70 -83
95 l-36 44 13 -40z"/>
<path d="M8827 31163 c-267 -81 -528 -109 -762 -83 -117 14 -246 45 -312 75
-29 13 -53 21 -53 18 0 -3 20 -26 44 -52 24 -25 63 -68 87 -94 24 -27 64 -59
89 -72 118 -60 311 -95 523 -95 l139 0 146 79 c81 43 186 99 234 123 l87 43
-57 45 -57 46 -108 -33z"/>
<path d="M34727 30758 c-122 -123 -266 -263 -320 -312 -53 -49 -95 -91 -93
-93 4 -4 285 -62 318 -66 11 -1 113 93 263 242 l246 244 69 -7 c128 -13 251
-56 330 -114 l35 -27 -35 45 c-19 25 -70 79 -112 122 -90 90 -196 147 -320
172 -155 32 -128 46 -381 -206z"/>
<path d="M9675 30327 c-88 -46 -221 -116 -296 -155 -224 -119 -448 -181 -725
-202 -241 -18 -511 16 -646 83 -36 18 -64 28 -60 22 3 -5 42 -50 86 -98 84
-92 153 -140 251 -171 139 -44 414 -66 587 -48 l97 11 138 99 c173 125 446
304 628 412 77 45 142 84 144 86 5 5 -30 44 -38 44 -3 0 -78 -38 -166 -83z"/>
<path d="M10545 29511 c-94 -59 -264 -170 -380 -247 -222 -147 -297 -184 -468
-229 -151 -40 -288 -55 -488 -55 -263 0 -458 33 -567 97 l-44 25 16 -24 c9
-13 30 -38 48 -54 18 -17 46 -47 61 -67 85 -113 283 -177 598 -193 l129 -7
162 110 c323 218 665 421 990 588 l197 101 -32 25 c-18 14 -37 28 -42 31 -6 4
-87 -42 -180 -101z"/>
<path d="M36268 29440 c75 -136 130 -334 151 -540 6 -58 16 -220 21 -360 19
-456 49 -633 210 -1225 106 -388 143 -551 160 -700 38 -334 -30 -626 -221
-953 -34 -58 -125 -203 -202 -321 -382 -588 -478 -743 -592 -964 -85 -165
-114 -250 -122 -363 -14 -189 73 -380 290 -639 77 -91 84 -96 38 -27 -56 84
-107 192 -127 272 -24 95 -15 250 20 355 48 141 233 467 497 871 403 619 478
750 544 946 49 148 68 268 68 433 -1 223 -26 354 -173 889 -158 577 -189 764
-205 1226 -20 588 -96 841 -331 1095 l-56 60 30 -55z"/>
<path d="M31244 28012 l-42 -37 59 -232 c91 -365 140 -688 157 -1058 l8 -160
73 149 c49 97 74 159 73 180 -4 110 -57 387 -129 680 l-57 228 32 27 33 26
-77 118 c-42 64 -79 117 -82 117 -4 -1 -26 -18 -48 -38z"/>
<path d="M30376 23570 c-3 -25 -13 -94 -22 -155 -90 -649 -296 -1178 -612
-1574 -246 -308 -664 -612 -1232 -895 -326 -162 -546 -253 -941 -390 -204 -70
-206 -71 -197 -96 5 -13 18 -62 30 -109 12 -47 22 -87 22 -88 1 -1 47 16 101
38 124 50 299 102 433 130 143 29 473 165 782 322 530 270 957 585 1190 877
313 393 515 913 610 1568 l20 142 -77 119 c-43 66 -83 128 -89 138 -10 15 -13
12 -18 -27z"/>
<path d="M6316 23060 c10 -17 33 -41 51 -53 18 -12 33 -26 33 -32 0 -5 11 -23
24 -39 l23 -30 13 53 c7 30 9 56 4 61 -5 4 -27 13 -49 20 -22 7 -57 21 -78 32
l-39 19 18 -31z"/>
<path d="M36260 23016 c0 -2 8 -10 18 -17 15 -13 16 -12 3 4 -13 16 -21 21
-21 13z"/>
<path d="M36316 22943 c73 -107 111 -225 99 -308 -32 -207 -393 -409 -860
-480 -55 -8 -172 -20 -260 -26 -154 -11 -167 -13 -340 -70 -176 -57 -416 -120
-509 -134 -44 -7 -46 -9 -56 -49 -58 -228 -138 -355 -396 -626 -223 -236 -268
-289 -414 -495 -255 -360 -455 -516 -805 -628 -237 -76 -429 -101 -728 -95
-209 5 -213 5 -302 37 -104 38 -287 128 -425 208 -218 128 -531 356 -669 486
l-55 52 42 -51 c116 -143 384 -373 630 -542 283 -194 601 -357 767 -393 90
-19 431 -17 579 5 406 59 731 212 952 449 38 41 121 148 184 238 141 201 214
289 410 494 84 88 184 200 222 250 80 102 158 256 184 363 15 57 23 74 39 77
11 3 74 16 140 31 129 28 397 106 509 148 47 18 88 26 132 26 101 0 347 28
479 55 233 47 428 127 571 233 130 97 168 161 162 278 -5 101 -57 202 -192
372 -104 130 -140 168 -90 95z"/>
<path d="M7340 21038 c41 -45 50 -53 50 -45 0 2 -21 23 -47 47 l-48 45 45 -47z"/>
<path d="M7735 20633 c339 -338 502 -490 890 -827 132 -115 274 -243 316 -284
53 -51 79 -70 84 -62 5 8 -18 36 -66 79 -41 36 -117 106 -169 156 -52 50 -220
200 -372 333 -333 291 -482 427 -778 710 -203 193 -193 183 95 -105z"/>
<path d="M30021 19875 c-1 -38 -8 -74 -19 -97 l-18 -35 74 -7 c123 -10 134 -9
123 12 -6 10 -29 39 -53 64 -24 25 -57 63 -75 84 l-32 39 0 -60z"/>
<path d="M31385 18999 c62 -121 125 -301 125 -360 0 -44 -26 -104 -59 -133
l-21 -19 48 -40 c26 -22 73 -67 104 -100 l57 -59 26 40 c42 64 42 94 -4 231
-66 197 -156 354 -290 501 l-40 45 54 -106z"/>
<path d="M31763 18120 c141 -225 141 -326 -2 -431 -36 -26 -104 -69 -151 -95
-47 -26 -86 -48 -88 -50 -2 -1 22 -37 53 -80 86 -119 137 -232 143 -314 2 -38
-1 -82 -7 -103 -16 -46 -79 -118 -137 -154 -40 -24 -53 -42 -99 -133 -189
-375 -502 -684 -942 -929 -62 -35 -113 -64 -113 -66 0 -1 7 -22 15 -45 39
-109 4 -184 -132 -282 l-42 -30 52 -62 c200 -235 292 -397 1027 -1796 395
-753 645 -1202 1016 -1827 614 -1034 1303 -2101 2053 -3178 220 -317 255 -363
266 -354 3 4 -65 110 -153 235 -758 1091 -1510 2266 -2144 3354 -330 564 -511
896 -988 1805 -576 1097 -673 1267 -873 1519 l-71 89 30 20 c16 11 57 48 91
83 77 77 86 111 55 198 -12 33 -21 60 -19 61 1 1 54 30 117 64 434 240 761
563 947 938 36 72 55 99 82 116 91 55 144 125 157 204 13 83 -42 220 -145 362
-25 36 -50 71 -54 78 -5 9 10 21 51 42 104 52 242 151 269 192 37 57 36 126
-5 214 -41 86 -123 211 -201 305 -87 104 -99 114 -58 50z"/>
<path d="M4210 15001 c4 -9 25 -32 45 -51 20 -19 45 -50 57 -68 24 -39 88 -84
154 -110 l48 -19 46 50 c25 28 62 63 83 78 l38 28 -43 5 c-24 3 -72 8 -108 11
-90 8 -222 40 -280 68 -38 18 -47 20 -40 8z"/>
<path d="M4660 13993 c8 -10 30 -36 51 -58 20 -22 57 -62 81 -89 l45 -49 159
26 c153 25 280 39 486 53 84 5 103 10 149 38 52 31 82 67 43 52 -45 -18 -311
-56 -430 -62 -216 -11 -460 27 -563 87 -31 19 -33 19 -21 2z"/>
<path d="M19345 12389 c-309 -71 -711 -134 -1040 -163 -408 -37 -1134 -75
-1431 -76 l-50 0 -75 -87 c-137 -163 -290 -327 -609 -653 l-317 -325 103 -98
102 -97 299 307 c344 354 408 423 568 606 l116 134 282 7 c454 10 1119 54
1458 96 264 33 606 93 849 151 l89 21 248 -160 c1720 -1105 2832 -1712 3983
-2172 454 -182 1279 -465 1298 -445 10 10 1 130 -10 141 -15 14 -126 50 -303
99 -141 39 -305 95 -710 240 -606 218 -1099 432 -1720 745 -777 393 -1512 823
-2654 1554 -177 113 -327 206 -334 205 -7 0 -70 -14 -142 -30z"/>
<path d="M4375 12201 l-50 -18 -7 -99 c-10 -131 6 -341 32 -424 11 -36 42
-110 70 -165 l50 -100 -5 190 c-14 546 -18 635 -29 634 -6 0 -33 -8 -61 -18z"/>
<path d="M16233 10620 c69 -107 145 -261 232 -465 157 -374 223 -508 318 -650
46 -68 138 -177 144 -171 3 2 -16 41 -42 86 -56 99 -89 171 -212 460 -157 372
-244 527 -396 710 -102 122 -105 124 -44 30z"/>
<path d="M2630 10600 c-91 -21 -168 -39 -171 -39 -13 -2 -19 -35 -29 -155 -13
-148 -34 -199 -117 -278 -292 -277 -1141 -401 -1531 -223 -61 28 -60 22 12
-52 23 -23 56 -60 75 -83 60 -72 202 -126 391 -150 295 -36 729 26 1001 143
35 16 36 17 47 96 19 137 93 250 246 381 51 43 76 72 76 86 0 16 8 23 32 28
31 6 92 51 155 114 23 22 33 42 33 63 0 31 -35 110 -48 108 -4 -1 -81 -19
-172 -39z"/>
<path d="M6665 10073 c-67 -44 -301 -157 -467 -227 -268 -111 -840 -298 -1164
-381 -248 -63 -374 -79 -614 -79 -236 0 -305 12 -435 72 l-60 28 -80 -37
c-381 -178 -1025 -209 -1317 -63 -26 13 -50 24 -53 24 -7 0 92 -115 145 -168
69 -70 231 -128 415 -151 317 -39 766 30 1027 157 l57 28 56 -29 c119 -59 187
-71 435 -71 349 -1 519 35 1215 256 420 133 893 332 1048 440 24 17 33 18 83
8 30 -7 57 -10 59 -8 2 2 -35 48 -81 103 -83 97 -87 100 -142 112 -77 16 -81
16 -127 -14z"/>
<path d="M7255 9633 c231 -228 428 -377 769 -581 242 -145 370 -212 1216 -642
360 -183 823 -418 1029 -523 l373 -190 80 19 80 18 -248 124 c-137 68 -521
262 -854 432 -333 169 -825 420 -1095 558 -269 137 -566 293 -659 346 -297
171 -568 357 -739 510 -138 121 -120 96 48 -71z"/>
<path d="M17900 8527 c84 -174 108 -432 60 -654 -65 -295 -264 -614 -533 -854
-93 -82 -153 -127 -442 -330 -144 -102 -309 -257 -372 -351 -88 -134 -139
-290 -228 -710 -85 -394 -164 -647 -263 -844 -89 -176 -237 -346 -373 -427
-54 -33 -55 -40 -1 -20 33 13 2 -20 -91 -93 -147 -117 -224 -164 -451 -274
-822 -399 -1716 -596 -2621 -577 -364 8 -661 42 -969 112 l-109 25 -111 -20
c-251 -44 -388 -55 -716 -55 -434 0 -640 27 -1094 141 -225 57 -309 84 -387
125 -43 23 -52 24 -299 25 -176 1 -295 6 -385 18 -434 57 -774 191 -1075 424
l-85 66 62 -69 c306 -347 723 -554 1268 -631 85 -12 198 -18 390 -19 266 -2
271 -2 320 -27 94 -47 160 -68 395 -127 459 -115 720 -146 1165 -138 284 5
462 22 671 61 68 12 78 12 200 -15 147 -33 393 -72 569 -91 162 -18 826 -18
995 0 464 49 868 133 1285 269 383 125 809 314 1010 446 75 50 248 187 242
193 -2 2 -23 -3 -47 -11 -62 -22 -61 -11 2 21 330 165 529 537 683 1274 142
680 215 808 615 1092 63 44 165 116 225 159 220 157 386 324 520 524 178 265
254 513 242 784 -11 250 -71 393 -248 590 l-56 63 37 -75z"/>
<path d="M25362 8543 c112 -137 179 -198 269 -242 46 -22 96 -43 112 -47 l27
-6 0 68 c0 106 -3 111 -63 119 -126 16 -297 76 -351 123 -12 10 -10 4 6 -15z"/>
<path d="M26130 7610 c112 -122 147 -149 258 -202 221 -105 564 -135 887 -79
l110 20 250 -124 c513 -253 1025 -457 1590 -632 212 -65 566 -165 570 -161 2
2 5 38 7 81 l5 77 -36 9 c-914 232 -1605 480 -2329 837 l-252 125 -78 -15
c-399 -76 -827 -17 -1042 142 -19 14 8 -21 60 -78z"/>
<path d="M36824 6283 c117 -158 223 -321 386 -598 261 -442 401 -745 417 -903
5 -44 19 -76 66 -156 299 -501 336 -949 111 -1328 -70 -118 -236 -283 -379
-377 -361 -237 -943 -430 -1550 -512 -127 -18 -220 -23 -451 -25 -235 -2 -299
-6 -328 -18 -68 -29 -312 -95 -462 -125 -347 -71 -653 -96 -1081 -88 -310 5
-419 15 -634 57 l-98 19 -138 -35 c-397 -100 -789 -138 -1423 -139 -468 0
-602 9 -908 61 -446 75 -877 243 -1112 433 l-55 45 74 -84 c140 -160 264 -253
476 -355 503 -244 1122 -343 1955 -314 529 18 919 67 1232 153 81 22 91 23
151 10 619 -129 1517 -77 2139 125 l125 41 299 4 c332 3 463 17 772 81 373 77
775 214 1032 352 217 116 422 286 517 428 261 390 235 840 -76 1364 -43 73
-60 112 -65 152 -24 184 -135 425 -419 909 -158 268 -264 432 -380 590 -84
114 -255 330 -261 330 -3 0 28 -44 68 -97z"/>
</g>
</svg>
